<svg class="border shadow-md" viewBox="0 0 1332.9066666666668 749.76" style="width: 1332.91px; height: 749.76px;" xmlns="http://www.w3.org/2000/svg" preserveAspectRatio="none"><rect class="bg" id="bg" x="0" y="0" width="1332.9066666666668" height="749.76" fill="#ffffff"/><g transform="rotate(0 666.4533333333334 374.88)"><path d="M -1532.91 -27.67 S -776.45 -76.67&#xA;            0.00 -27.67 687.91 -56.51&#xA;            1532.91 -27.67 2289.36 -57.67&#xA;            3065.81 -27.67 h 110 V 949.76 H -1532.91 Z" fill="#6C5BC0" id="-1"/><path d="M -1532.91 30.00 S -776.45 1.16&#xA;            0.00 30.00 756.45 1.16&#xA;            1532.91 30.00 2289.36 1.16&#xA;            3065.81 30.00 h 110 V 949.76 H -1532.91 Z" fill="#6757b6" id="0"/><path id="1" d="M -1532.91 87.67 S -776.45 58.84&#xA;            0.00 87.67 756.45 58.84&#xA;            1532.91 87.67 2289.36 58.84&#xA;            3065.81 87.67 h 110 V 949.76 H -1532.91 Z" fill="#6253ac"/><path id="2" d="M -1532.91 145.35 S -776.45 97.35&#xA;            0.00 145.35 756.45 116.51&#xA;            1532.91 145.35 2164.81 100.35&#xA;            3065.81 145.35 h 110 V 949.76 H -1532.91 Z" fill="#5d4fa2"/><path id="3" d="M -1532.91 203.02 S -776.45 171.02&#xA;            0.00 203.02 756.45 174.18&#xA;            1532.91 203.02 2289.36 159.02&#xA;            3065.81 203.02 h 110 V 949.76 H -1532.91 Z" fill="#584b98"/><path id="4" d="M -1532.91 260.70 S -776.45 207.70&#xA;            0.00 260.70 756.45 231.86&#xA;            1532.91 260.70 2289.36 231.86&#xA;            3065.81 260.70 h 110 V 949.76 H -1532.91 Z" fill="#53478e"/><path id="5" d="M -1532.91 318.37 S -776.45 289.53&#xA;            0.00 318.37 756.45 281.37&#xA;            1532.91 318.37 2289.36 289.53&#xA;            3065.81 318.37 h 110 V 949.76 H -1532.91 Z" fill="#4e4384"/><path id="6" d="M -1532.91 376.04 S -840.00 326.04&#xA;            0.00 376.04 756.45 339.04&#xA;            1532.91 376.04 2289.36 347.21&#xA;            3065.81 376.04 h 110 V 949.76 H -1532.91 Z" fill="#493f7a"/><path id="7" d="M -1532.91 433.72 S -776.45 404.88&#xA;            0.00 433.72 756.45 404.88&#xA;            1532.91 433.72 2289.36 404.88&#xA;            3065.81 433.72 h 110 V 949.76 H -1532.91 Z" fill="#443b70"/><path id="8" d="M -1532.91 491.39 S -831.00 462.55&#xA;            0.00 491.39 756.45 462.55&#xA;            1532.91 491.39 2064.81 445.39&#xA;            3065.81 491.39 h 110 V 949.76 H -1532.91 Z" fill="#3f3766"/><path id="9" d="M -1532.91 549.06 S -776.45 498.06&#xA;            0.00 549.06 756.45 520.06&#xA;            1532.91 549.06 2289.36 520.23&#xA;            3065.81 549.06 h 110 V 949.76 H -1532.91 Z" fill="#3a335c"/><path id="10" d="M -1532.91 606.74 S -776.45 565.74&#xA;            0.00 606.74 557.91 577.90&#xA;            1532.91 606.74 2071.81 577.90&#xA;            3065.81 606.74 h 110 V 949.76 H -1532.91 Z" fill="#352f52"/><path id="11" d="M -1532.91 664.41 S -776.45 635.58&#xA;            0.00 664.41 756.45 635.58&#xA;            1532.91 664.41 2181.81 614.41&#xA;            3065.81 664.41 h 110 V 949.76 H -1532.91 Z" fill="#302b48"/><path id="12" d="M -1532.91 722.09 S -776.45 693.25&#xA;            0.00 722.09 756.45 693.25&#xA;            1532.91 722.09 2162.81 693.25&#xA;            3065.81 722.09 h 110 V 949.76 H -1532.91 Z" fill="#2b273e"/></g></svg>